<?xml version="1.0" encoding="UTF-8" standalone="no"?>
<!-- Created with Inkscape (http://www.inkscape.org/) -->

<svg
   width="512"
   height="512"
   viewBox="0 0 512 512"
   version="1.1"
   id="svg1"
   xml:space="preserve"
   inkscape:version="1.3 (0e150ed6c4, 2023-07-21)"
   sodipodi:docname="icon.svg"
   inkscape:export-filename="icon512.png"
   inkscape:export-xdpi="95.873901"
   inkscape:export-ydpi="95.873901"
   xmlns:inkscape="http://www.inkscape.org/namespaces/inkscape"
   xmlns:sodipodi="http://sodipodi.sourceforge.net/DTD/sodipodi-0.dtd"
   xmlns="http://www.w3.org/2000/svg"
   xmlns:svg="http://www.w3.org/2000/svg"><sodipodi:namedview
     id="namedview1"
     pagecolor="#2f313e"
     bordercolor="#666666"
     borderopacity="1.0"
     inkscape:showpageshadow="2"
     inkscape:pageopacity="0.0"
     inkscape:pagecheckerboard="0"
     inkscape:deskcolor="#d1d1d1"
     inkscape:document-units="px"
     inkscape:clip-to-page="true"
     showgrid="true"
     inkscape:zoom="0.42050406"
     inkscape:cx="602.84793"
     inkscape:cy="400.70957"
     inkscape:window-width="1920"
     inkscape:window-height="1057"
     inkscape:window-x="-8"
     inkscape:window-y="-8"
     inkscape:window-maximized="1"
     inkscape:current-layer="layer1"><inkscape:grid
       id="grid6"
       units="px"
       originx="0"
       originy="0"
       spacingx="0.2"
       spacingy="0.2"
       empcolor="#0099e5"
       empopacity="0.30196078"
       color="#0099e5"
       opacity="0.14901961"
       empspacing="5"
       dotted="false"
       gridanglex="30"
       gridanglez="30"
       visible="true" /></sodipodi:namedview><defs
     id="defs1" /><g
     inkscape:label="Layer 1"
     inkscape:groupmode="layer"
     id="layer1"><rect
       style="fill:#30313c;fill-opacity:1;stroke-width:11.2063;stroke-linecap:round;stroke-linejoin:bevel;stroke:none"
       id="rect7"
       width="512"
       height="512"
       x="3.8146973e-06"
       y="0" /><rect
       style="fill:#fc5751;fill-opacity:1;stroke:none;stroke-width:2.965;stroke-linecap:round;stroke-linejoin:bevel"
       id="rect2"
       width="512.6734"
       height="34.382179"
       x="3.6890233e-06"
       y="49.248619" /><rect
       style="fill:#fca427;fill-opacity:1;stroke:none;stroke-width:2.965;stroke-linecap:round;stroke-linejoin:bevel"
       id="rect3"
       width="512.6734"
       height="34.382179"
       x="3.8083895e-06"
       y="98.381378" /><rect
       style="fill:#f7d916;fill-opacity:1;stroke:none;stroke-width:2.965;stroke-linecap:round;stroke-linejoin:bevel"
       id="rect4"
       width="512.6734"
       height="34.382179"
       x="3.8083895e-06"
       y="149.09558" /><rect
       style="fill:#08c670;fill-opacity:1;stroke:none;stroke-width:2.965;stroke-linecap:round;stroke-linejoin:bevel"
       id="rect5"
       width="512.6734"
       height="34.382179"
       x="3.8083895e-06"
       y="199.2906" /><rect
       style="fill:#0da8f2;fill-opacity:1;stroke:none;stroke-width:2.965;stroke-linecap:round;stroke-linejoin:bevel"
       id="rect6"
       width="512.6734"
       height="34.382179"
       x="3.8083895e-06"
       y="251.28815" /><path
       id="path6"
       style="font-weight:bold;font-size:226.667px;line-height:1.25;font-family:Consolas;-inkscape-font-specification:'Consolas Bold';fill:#30313c;fill-opacity:1;stroke:none;stroke-width:0.999998"
       d="m 6.2856036,42.824196 c 0,83.219104 0,166.438214 0,249.657324 20.9440084,-0.0213 41.8906474,0.0646 62.8325834,-0.0995 13.503284,-0.5145 26.397872,-4.00147 35.530723,-9.3138 5.13498,-2.98589 9.17679,-6.43753 13.73546,-9.66627 0.30956,-0.19417 0.81519,-0.66438 1.00886,-0.69538 -1.19936,6.59167 -2.40012,13.18327 -3.59856,19.77499 18.41416,0 36.82833,0 55.24248,0 2.73168,-15.51143 5.4671,-31.02268 8.20022,-46.53403 8.32409,0 16.64818,0 24.97226,0 2.66788,15.51133 5.33322,31.02278 8.00269,46.53403 19.4559,0 38.91179,0 58.36769,0 -0.73791,-4.16866 -1.58409,-8.3344 -2.19645,-12.50778 0.15196,-2.13308 0.30392,-4.26617 0.45588,-6.39925 2.29588,1.84126 4.68301,3.65168 6.92539,5.51091 1.70897,1.62527 3.20247,3.31662 5.13762,4.87239 4.80325,4.08968 11.09174,7.80758 19.10732,10.12895 7.83831,2.29686 17.17622,3.08379 25.94986,2.16381 6.65509,-0.67025 12.90612,-2.30234 18.16176,-4.57306 8.08182,-3.43704 14.10146,-8.05897 18.83852,-12.9198 6.30489,-6.49631 10.38585,-13.53168 13.63397,-20.61895 3.64244,-8.15117 5.96365,-16.4611 7.40125,-24.80221 2.09394,-12.48009 2.18768,-25.03578 1.21633,-37.54832 -0.79751,-9.52732 -2.4774,-19.0543 -5.9009,-28.42155 -2.57161,-7.01992 -6.23344,-13.98585 -12.22562,-20.40637 -4.43575,-4.70973 -10.41595,-9.12022 -18.43124,-12.26178 -7.18286,-2.83527 -16.15423,-4.33954 -25.08045,-4.18123 -3.16288,0.0395 -6.30291,0.30523 -9.36953,0.71123 -1.37582,0.0884 -2.80091,-0.62916 -2.41068,-1.38465 0.32526,-2.14409 0.69573,-4.31091 1.14703,-6.41154 1.40961,-6.50484 3.39301,-13.03783 7.67636,-19.19922 0.67879,-0.95764 1.3696,-1.86347 2.19891,-2.7559 2.01582,-2.177865 4.53027,-4.302526 8.10933,-5.839756 2.6031,-1.063784 5.90128,-1.567592 9.15872,-1.529006 4.48415,-0.07424 8.97139,5.35e-4 13.45674,-0.02891 3.76883,-0.0021 7.56805,0.04942 11.30431,-0.241579 3.28122,-0.440199 5.72896,-1.803464 7.70926,-3.195068 1.84751,-1.172747 3.69502,-2.345488 5.54253,-3.518235 0,4.06179 0,8.123581 0,12.185371 22.3588,0 44.71758,0 67.07638,0 -19.20946,64.390503 -38.41903,128.780993 -57.62842,193.171503 19.66253,0 39.32508,0 58.98763,0 20.0779,-68.0795 40.15305,-136.15925 60.22754,-204.239032 0,-15.496359 0,-30.992716 0,-46.489073 -55.19642,0.005 -110.39301,-0.01477 -165.5893,0.0275 -13.76061,0.131478 -27.28016,3.054918 -37.55788,7.927226 -9.09755,4.216526 -16.10271,9.582248 -21.51597,15.300081 -8.10694,8.4827 -13.0474,17.708735 -16.73486,26.994077 -6.45819,16.298081 -9.31625,32.932161 -10.98783,49.545761 -0.36932,3.84728 -0.70775,7.69564 -0.95668,11.54572 -0.0688,0.27689 0.0117,0.74067 -0.19836,1.06965 -1.19204,1.57449 -2.38409,3.14896 -3.57613,4.72345 -1.42225,-1.63023 -2.93673,-3.24627 -4.25942,-4.89586 -6.80521,-37.41253 -13.61023,-74.825073 -20.41556,-112.237603 -21.18669,0 -42.37337,0 -63.56006,0 -8.17687,44.949814 -16.35349,89.899643 -24.53026,134.849463 -0.99349,2.13633 -1.98699,4.27267 -2.98048,6.409 -1.62735,-2.07547 -3.33663,-4.13574 -4.85868,-6.23295 -1.44077,-2.73008 -2.87846,-5.46573 -4.82736,-8.10765 -2.49739,-3.48277 -5.72476,-6.82919 -9.8533,-9.84087 -0.58439,-0.64792 0.0304,-1.34949 0.65936,-1.91112 5.04395,-5.59791 7.99194,-11.65527 10.27297,-17.72476 3.558,-9.86745 4.75169,-19.92905 5.13313,-29.96073 0.27653,-9.665107 -0.43338,-19.362924 -3.10188,-28.932198 -1.7315,-6.175477 -4.41569,-12.311022 -8.88033,-18.095081 -3.89539,-5.008795 -9.27024,-9.78804 -16.83756,-13.458006 -5.998638,-2.960045 -13.398523,-5.0903 -21.32105,-6.141226 -4.971151,-0.688049 -10.125925,-0.916586 -15.249573,-0.848743 -19.582231,-0.0017 -39.164462,-0.0038 -58.7466935,-0.0051 0,0.356927 0,0.713854 0,1.070781 z m 57.6421174,46.870748 c 1.731501,1.682658 3.476196,3.310664 5.110494,5.003628 3.215004,3.798609 4.029859,8.008928 4.596793,12.121518 0.425593,3.17946 0.537947,6.37011 0.395828,9.55655 -0.04252,0.74589 -0.09361,1.61901 -0.17142,2.41304 -0.424671,4.12971 -1.045857,8.27412 -2.706951,12.32153 -0.21709,0.52684 -0.465123,1.03858 -0.686859,1.48087 -0.251703,0.48548 -0.469218,0.87665 -0.773981,1.37635 -0.435272,0.83472 -1.166722,1.60275 -1.978507,2.34836 -1.417603,1.39112 -2.835205,2.78224 -4.252808,4.17335 -0.684447,-2.09292 -1.447406,-4.18166 -2.044773,-6.28077 -0.11828,-3.4011 -0.01632,-6.80331 -0.05254,-10.20487 0.01145,-9.67384 -0.04229,-19.34857 0.06105,-29.021828 0.275878,-2.305639 0.551758,-4.611273 0.827636,-6.916907 0.558677,0.543058 1.117353,1.086116 1.676029,1.629179 z m 255.912299,92.830696 c 1.23408,0.0551 1.81927,0.71525 2.22687,1.2526 3.03277,3.29991 4.37324,6.94677 5.47876,10.54874 1.19083,4.3077 1.68086,8.63052 1.94553,13.01923 0.18277,3.18869 0.19877,6.46151 0.013,9.68164 -0.23849,4.27512 -0.86617,8.63319 -2.01497,12.90173 -0.82783,2.98515 -1.88535,5.96831 -3.65438,8.83779 -0.79166,0.76135 -2.47153,1.25304 -4.08825,1.23263 -1.33,-0.12738 -2.43603,-0.68296 -3.05154,-1.30584 -0.71128,-0.86894 -0.88468,-1.82818 -1.33909,-2.73953 -2.30704,-5.66372 -3.28483,-11.44953 -4.1982,-17.21593 -0.38558,-2.62543 -0.68882,-5.33071 -0.91907,-7.96443 -0.67303,-7.55243 -0.81488,-15.10762 -0.95356,-22.67722 2.56396,-2.01286 5.57924,-3.8874 9.16046,-5.39888 0.4187,-0.13943 0.90632,-0.18907 1.39441,-0.17253 z m -257.56486,5.35286 c 2.379634,0.31671 5.128368,0.37704 6.945138,1.36976 2.242333,1.18496 3.428135,2.79397 4.594345,4.32727 2.576304,3.74651 3.723719,7.72488 4.407639,11.68443 0.115437,0.68232 0.19002,1.27742 0.27927,1.96894 0.124514,1.04468 0.221263,2.19767 0.277707,3.28555 0.04614,1.04776 0.0712,2.20305 0.05671,3.29286 -0.09703,5.26122 -0.771152,10.59489 -2.673434,15.79612 -0.264027,0.70619 -0.502916,1.30798 -0.816907,2.0173 -1.350599,2.98964 -2.936763,6.0812 -6.606085,8.52179 -0.570256,0.45734 -1.422183,0.77463 -2.418058,0.90907 -0.53928,0.0655 -1.117428,0.24787 -1.629194,0.24447 -1.29957,-0.50098 -3.062288,-0.96994 -3.213106,-1.932 -0.287224,-1.10268 -0.0025,-2.22027 -0.115384,-3.32904 0,-16.09226 0,-32.18451 0,-48.27677 0.303785,0.0401 0.607569,0.0802 0.911354,0.12025 z" /><path
       style="font-weight:bold;font-size:226.667px;line-height:1.25;font-family:Consolas;-inkscape-font-specification:'Consolas Bold';fill:#fceed0;stroke:none;stroke-width:0.999998"
       d="m 20.304038,284.98567 v -235.73705 h 46.767227 q 24.713487,0 37.014815,14.068477 12.41216,14.068463 12.41216,42.566143 0,8.83787 -1.32988,17.31502 -1.21905,8.2968 -3.8788,15.33103 -2.65975,7.03423 -6.64937,12.44518 -3.98962,5.41096 -9.419931,8.47716 5.430311,1.44292 10.306521,5.77168 4.98703,4.1484 8.64418,11.00227 3.76797,6.6735 5.8736,15.87211 2.21646,9.19861 2.21646,20.56162 0,36.073 -14.85026,54.28985 -14.850248,18.03651 -42.88842,18.03651 z m 67.823561,-171.34674 q 0,-6.67351 -1.329874,-12.08447 -1.329873,-5.410932 -4.322089,-9.198613 -2.881393,-3.78766 -7.535952,-5.771679 -4.543735,-2.164366 -11.082281,-2.164366 h -16.512599 v 62.406268 h 16.512599 q 6.649369,0 11.193105,-2.5251 4.654557,-2.70548 7.535951,-7.21461 2.992215,-4.68949 4.211266,-10.64151 1.329874,-5.95205 1.329874,-12.80592 z m -21.721271,135.09338 q 6.538546,0 11.41475,-2.70548 4.987026,-2.70548 8.311711,-7.39497 3.324684,-4.86985 4.987026,-11.36299 1.773165,-6.49314 1.773165,-13.8881 0,-15.33103 -7.09266,-23.98854 -6.981837,-8.65753 -21.499626,-8.65753 h -16.95589 v 67.99761 z m 158.587432,36.25336 -7.97924,-46.53416 h -50.53519 l -8.2009,46.53416 h -27.04076 l 42.88843,-235.73705 h 38.12304 l 42.88844,235.73705 z m -32.91437,-192.44945 -19.06153,109.66192 h 37.90141 z m 179.7546,117.77834 q 0,17.85613 -3.98962,32.4657 -3.98962,14.42919 -11.08228,24.89036 -6.98183,10.2808 -16.73424,15.87213 -9.75241,5.59131 -21.38881,5.59131 -25.37842,0 -38.78798,-25.97255 -13.40957,-25.97256 -13.40957,-79.3606 0,-19.47942 1.4407,-36.97484 1.4407,-17.67576 4.76538,-32.46568 3.43551,-14.970295 9.08747,-27.054751 5.76279,-12.084447 14.29615,-20.381247 8.53336,-8.477156 20.16975,-12.98628 11.63639,-4.689492 27.04077,-4.689492 h 16.5126 v 37.335548 h -19.28317 q -11.96887,0 -20.05894,3.968033 -8.09006,3.968032 -13.18791,11.363009 -5.09785,7.39496 -7.64677,18.03648 -2.54893,10.64154 -3.32469,23.98855 l -0.22164,4.32876 q 5.76279,-4.50912 13.07708,-7.39495 7.42514,-2.88585 15.5152,-2.88585 11.74722,0 20.61305,5.05021 8.86582,4.86987 14.73943,14.24883 5.98443,9.37899 8.86582,22.726 2.99222,13.34701 2.99222,30.30132 z m -28.14899,1.98402 q 0,-8.2968 -1.32988,-15.15066 -1.32987,-7.03425 -4.21127,-11.90409 -2.77057,-5.05022 -7.20348,-7.75569 -4.32209,-2.88585 -10.41734,-2.88585 -3.54633,0 -7.09266,1.08218 -3.43551,0.90183 -6.76019,2.52513 -3.21387,1.62327 -6.20608,3.60729 -2.88139,1.98402 -5.20867,4.1484 0,18.21686 1.55152,30.84242 1.55151,12.44518 4.65455,20.38124 3.21386,7.93606 7.86843,11.54336 4.76537,3.42694 10.97146,3.42694 5.31948,0 9.64158,-2.88585 4.32209,-2.88583 7.31431,-8.11641 3.10303,-5.41096 4.76538,-12.62556 1.66234,-7.39498 1.66234,-16.23285 z m 90.87469,72.68709 h -30.58709 l 57.62786,-193.170916 h -69.4859 v -42.566134 h 100.62711 v 38.417755 z"
       id="text6"
       aria-label="BA67" /><text
       xml:space="preserve"
       style="font-style:normal;font-variant:normal;font-weight:bold;font-stretch:normal;font-size:181.859px;line-height:1.25;font-family:Consolas;-inkscape-font-specification:'Consolas Bold';fill:#fceed0;fill-opacity:1;stroke:none;stroke-width:1"
       x="22.662436"
       y="436.91031"
       id="text7"
       transform="scale(0.93793294,1.0661743)"><tspan
         sodipodi:role="line"
         id="tspan6"
         x="22.662436"
         y="436.91031"
         style="font-style:normal;font-variant:normal;font-weight:bold;font-stretch:normal;font-size:181.859px;font-family:Consolas;-inkscape-font-specification:'Consolas Bold';fill:#fceed0;fill-opacity:1;stroke-width:1;stroke:none">BASIC</tspan></text></g></svg>
